<svg width="60" height="60" viewBox="0 0 60 60" xmlns="http://www.w3.org/2000/svg">
  <defs>
    <filter id="rock-texture" x="-10%" y="-10%" width="120%" height="120%">
      <feTurbulence type="fractalNoise" baseFrequency=".8" numOctaves="3" result="noise"/>
      <feColorMatrix values="1 0 0 0 0 0 1 0 0 0 0 0 1 0 0 0 0 0 0.07 0" in="noise" result="fineGrain"/>
      <feTurbulence type="fractalNoise" baseFrequency=".15" numOctaves="2" result="distort"/>
      <feDisplacementMap in="SourceGraphic" in2="distort" scale="1.8" xChannelSelector="R" yChannelSelector="G" result="displaced"/>
    </filter>
  </defs>
  <g filter="url(#rock-texture)">
    <path d="M13 44 8 28l9-17 17-3 13 6 5 15-6 17-15 6-17-3Z" fill="#54493f"/>
    <path d="m17 11 17-3-3 15-11-3Z" fill="#c7b8a7"/>
    <path d="m34 8 13 6-10 12-6-3Z" fill="#d5c6b5"/>
    <path d="m31 23 6 3-3 12-8-3Z" fill="#b0a090"/>
    <path d="m8 28 9-17 3 9-6 9Z" fill="#8a7b6c"/>
    <path d="m20 20 11 3-5 12-9-3Z" fill="#9e8e7e"/>
    <path d="m47 14 5 15-9 3-6-6Z" fill="#a39383"/>
    <path d="m14 29 3 3-3 12-3-7Z" fill="#665747"/>
    <path d="m17 32 9 3-3 11-9-2Z" fill="#736353"/>
    <path d="m26 35 8 3-5 11-6-3Z" fill="#7a6959"/>
    <path d="m37 26 6 6-5 11-4-5Z" fill="#827161"/>
    <path d="m43 32 9-3-4 14H38Z" fill="#8a7969"/>
    <path d="m14 44 9 2-3 5-9-2Z" fill="#544638"/>
    <path d="m23 46 6 3-1 4-8-2Z" fill="#5c4d3f"/>
    <path d="m29 49 9-6-4 9-6 1Z" fill="#665647"/>
    <path d="M38 43h10l-8 8-6 1Z" fill="#6e5e4e"/>
  </g>
</svg>
